<svg width="420" height="746" viewBox="0 0 420 746" fill="none" xmlns="http://www.w3.org/2000/svg">
<path d="M375.624 694.364H375.466H374.373C374.634 691.029 374.901 687.471 375.126 684.452H377.622C377.434 686.991 377.209 689.918 377.015 692.827C376.978 693.325 376.942 693.817 376.899 694.303L375.624 694.364Z" fill="#292929"/>
<path d="M347.723 694.322C347.723 693.605 347.674 692.877 347.65 692.142C347.54 688.947 347.455 686.226 347.395 683.906L348.64 684.003L349.891 684.082C349.964 686.894 350.061 689.737 350.14 692.057C350.14 692.871 350.194 693.66 350.219 694.419L348.968 694.377L347.723 694.322Z" fill="#292929"/>
<path d="M409.088 364.594H405.972H404.727C402.522 392.167 399.717 440.431 396.789 490.737C396.091 502.805 395.38 515.03 394.664 527.134C391.846 575.071 386.033 673.848 382.717 682.162C381.624 682.083 379.924 682.047 377.81 682.029H374.124L374.579 680.346C374.76 680.395 374.927 680.486 375.067 680.61C375.207 680.734 375.317 680.889 375.387 681.063C375.412 681.119 375.431 681.178 375.441 681.239C375.421 681.074 375.411 680.908 375.411 680.741C375.411 680.267 375.411 679.526 375.411 678.5C375.411 678.111 375.411 677.68 375.448 677.212C375.484 676.745 375.448 676.387 375.49 675.931C376.097 658.021 379.571 598.52 382.93 540.696C387.376 464.348 391.955 385.468 392.398 364.29C392.398 363.853 392.398 363.434 392.398 363.075H391.147H389.932C389.932 363.458 389.932 363.871 389.932 364.29C389.762 372.538 388.93 390.011 387.734 412.573C381.569 401.125 368.773 372.453 367.692 363.652C367.641 363.25 367.618 362.844 367.625 362.438L366.41 362.395L365.153 362.347C365.143 362.764 365.161 363.182 365.208 363.598C366.295 374.281 382.784 409.591 387.424 417.043L387.509 417.183C385.633 452.147 382.972 498.001 380.501 540.599C378.351 577.519 376.328 612.392 374.907 638.453C374.148 652.421 373.626 662.649 373.31 669.736C373.213 671.874 373.14 673.714 373.085 675.281C373.085 675.731 373.085 676.162 373.043 676.563C373 676.964 373.012 677.449 373 677.844C373 678.057 373 678.269 373 678.451C372.958 680.419 372.933 681.488 373.14 682.065H371.621C366.022 682.065 356.772 682.065 349.891 681.676L348.64 681.597L347.425 681.5C344.316 681.245 342.002 680.893 341.249 680.346C340.921 676.429 339.524 647.435 337.902 613.983C336.76 590.364 335.473 563.574 334.258 539.676C333.499 524.584 332.886 512.716 332.382 503.4L332.776 487.154L330.572 473.701C330.526 472.401 330.372 471.107 330.11 469.832C329.855 468.909 327.681 456.101 325.367 441.895L321.723 419.491L319.263 419.891C319.98 424.295 321.316 432.481 322.719 441.014C311.586 463.929 314.514 632.634 315.656 672.773C315.656 673.228 315.656 673.66 315.692 674.079C315.728 674.498 315.692 674.971 315.728 675.384C315.783 677.012 315.826 678.33 315.862 679.308L290.354 677.953L289.091 677.887L287.876 677.82L284.906 677.662L264.895 425.6L263.759 427.064L262.629 428.516C235.609 462.945 199.254 499.185 175.945 511.921C167.788 516.372 160.816 520.381 154.081 524.262C135.302 535.06 120.471 543.587 95.382 552.77L94.3677 553.146V553.092L94.1977 553.152C93.8819 569.733 103.138 588.59 131.13 628.893C132.575 630.964 134.324 633.357 136.353 636.126C150.552 655.512 174.323 687.95 167.248 714.351C166.835 715.888 166.531 717.345 166.294 718.73C181.478 716.665 192.507 699.465 183.032 662.145C180.232 651.109 163.039 631.778 164.515 631.213C181.071 624.945 201.325 657.401 203.518 667.392C206.141 679.369 217.098 720.971 177.172 738.45C168.881 742.094 158.417 742.306 151.664 741.122C146.671 742.045 139.796 742.501 130.273 742.598C127.771 742.598 125.038 742.634 122.105 742.634C110.984 742.634 97.0521 742.477 82.4822 742.313C57.2718 742.027 31.199 741.705 19.4229 742.313C16.6838 742.434 12.5113 740.023 10.5739 735.881C9.30462 733.178 8.08387 727.664 14.0843 721.135C16.289 718.783 18.7639 716.699 21.4574 714.928C21.4574 712.231 21.6153 709.796 21.7914 706.771C21.9858 703.383 22.2044 699.538 22.338 694.017C22.5567 684.579 22.2105 646.7 21.9068 613.285C21.7671 597.64 21.6275 582.857 21.5607 571.925C21.5242 566.07 21.506 561.783 21.512 558.819C21.512 556.754 21.5121 555.436 21.5607 554.568C20.1213 553.638 19.2588 552.691 19.0219 551.786C18.2385 548.749 18.9673 540.034 20.7772 538.698C20.9882 538.539 21.2375 538.438 21.4999 538.406C21.4391 538.06 21.3785 537.708 21.3177 537.338C20.8197 534.301 20.2609 530.863 17.2607 529.807C9.833 527.183 2.11381 517.302 0.735168 508.659C0.0245888 504.226 1.08744 500.764 3.77185 498.693C7.76093 495.535 12.1417 492.905 16.8052 490.87C21.6639 488.678 22.4291 488.344 24.5426 475.08C25.0591 471.881 25.3796 468.655 25.5023 465.417C25.7513 460.431 25.897 457.425 30.3245 448.12C31.3326 445.995 32.6991 445.691 33.6708 445.806C40.0539 446.572 48.3136 472.833 48.9088 475.292C49.1882 475.578 51.2775 476.999 64.7603 477.066C65.3251 474.94 66.0538 472.371 66.8251 469.668C68.8476 462.569 71.362 453.732 72.109 448.369C72.6313 444.634 74.8055 444.343 75.7165 444.397C82.2454 444.75 93.6753 465.047 94.3252 486.066C94.5013 491.867 94.1066 503.108 93.7179 514.004C93.4021 522.98 93.0438 533.007 93.2138 536.238C93.5032 536.286 93.7787 536.396 94.0215 536.56C95.5459 537.587 95.5035 540.332 95.4488 544.134C95.3474 546.129 95.4328 548.13 95.7039 550.11C119.876 541.164 134.452 532.783 152.793 522.215C159.547 518.334 166.531 514.32 174.718 509.85C198.331 496.956 235.409 459.775 262.332 425.023L263.461 423.548L264.615 421.956L259.757 360.045L258.499 360.002L257.248 359.96L253.914 359.844L252.699 359.802V358.587C252.815 347.783 252.833 336.584 252.857 324.722C252.912 293.797 252.967 261.189 254.783 232.013C247.124 234.886 239.636 236.386 232.858 236.386C229.961 236.401 227.071 236.1 224.24 235.487C209.889 232.274 202.018 220.546 202.072 202.454C202.072 197.711 204.252 171.662 207.216 145.401C212.919 94.8224 215.834 93.1704 216.934 92.5266C218.033 91.8829 219.837 91.5792 222.12 91.4881C221.598 86.8724 222.8 77.5741 225.193 68.4823C227.149 61.0425 231.473 47.7115 238.482 42.0815C238.549 42.0269 246.984 35.7896 253.665 32.4917L252.056 19.428C251.946 18.5223 252.199 17.61 252.76 16.8906C253.321 16.1712 254.145 15.7035 255.05 15.5897C255.956 15.4797 256.868 15.7331 257.587 16.2942C258.307 16.8553 258.774 17.6786 258.888 18.5838L260.364 30.5543C261.193 30.6093 261.994 30.8775 262.689 31.3329C263.383 31.7883 263.949 32.4155 264.33 33.1537C265.283 34.7632 264.506 36.3847 263.188 37.7938C263.795 37.913 264.361 38.1847 264.834 38.5833C267.111 36.6945 269.401 35.8442 271.673 37.4172C275.651 39.1542 273.683 44.2376 271.405 50.1166C269.456 55.1574 267.239 60.8785 267.688 66.0894C267.834 67.79 267.045 70.7841 265.733 74.173L267.652 89.6722C267.706 90.1238 267.67 90.5817 267.547 91.0195C267.423 91.4573 267.214 91.8664 266.932 92.2231C266.65 92.5799 266.3 92.8773 265.902 93.0982C265.505 93.3192 265.067 93.4593 264.615 93.5105C264.476 93.5196 264.336 93.5196 264.196 93.5105C263.355 93.509 262.542 93.1992 261.914 92.6397C261.285 92.0802 260.883 91.3097 260.783 90.4738L260.176 85.4087C258.123 88.7915 255.991 91.5367 254.272 92.6117C254.163 95.3629 254.048 96.948 253.574 97.9198C256.55 99.3956 258.19 100.914 258.566 102.529C258.615 102.73 258.615 102.73 258.566 108.141C258.566 113.085 258.506 121.223 258.536 127.424C258.536 127.892 258.566 128.699 258.536 129.768C258.566 132.775 258.615 135.022 258.706 135.714L258.421 135.751C258.372 137.894 258.311 140.336 258.238 142.966C258.165 145.595 258.087 148.784 258.014 152.003C259.831 151.397 261.581 150.605 263.237 149.64C266.881 147.436 274.169 144.411 279.635 142.158C284.171 139.583 295.535 135.902 306.546 132.337C311.192 130.831 315.583 129.41 319.439 128.086C320.629 127.982 321.823 127.937 323.016 127.952C324.34 121.351 325.573 115.022 325.92 112.49L325.385 112.423C319.609 111.664 302.033 109.356 302.306 95.7759C302.665 76.9485 307.165 59.5849 314.951 46.9463C316.518 44.376 318.294 41.9385 320.259 39.6583C317.623 38.4994 315.334 36.6723 313.62 34.3576C311.906 32.043 310.826 29.321 310.487 26.4609C309.619 19.4341 312.917 12.8931 319.36 8.96972C325.27 5.32572 334.483 6.92908 342.39 10.4638C343.306 11.3008 344.172 12.1911 344.984 13.13C345.7 13.9499 346.362 14.8001 346.964 15.6382C347.776 16.7718 348.497 17.9679 349.12 19.2154C351.72 24.6601 355.309 29.5739 359.705 33.7064L359.967 34.0769L362.026 32.6739C361.877 32.4232 361.702 32.1891 361.503 31.9755C357.277 28.0402 353.836 23.3394 351.361 18.1222C351.239 17.8793 351.112 17.6242 350.972 17.3752C350.674 16.8043 350.334 16.2213 349.958 15.6322C349.581 15.0431 349.108 14.3385 348.634 13.6826C350.632 14.6361 353.158 15.5411 355.995 16.5614C361.837 18.6506 369.113 21.2561 374.907 25.6046C383.282 31.8965 384.242 44.2862 381.588 53.1289C381.369 53.8456 381.065 54.9874 380.689 56.4267C385.292 59.427 385.341 62.6762 382.638 69.5391C381.223 73.0798 379.705 77.4769 378.187 81.7283C376.893 85.4087 375.861 88.33 375.041 90.4495C376.644 89.7025 378.077 89.5507 378.958 90.4799C383.762 95.3993 379.711 102.22 375.794 108.809C375.472 109.356 375.138 109.902 374.804 110.455C371.955 115.126 369.016 119.948 369.125 128.772C390.582 136.224 414.93 148.517 418.617 158.343L418.653 158.465C422.686 173.855 409.695 355.727 409.136 363.458L409.088 364.594ZM69.6614 724.833C74.7448 720.236 81.0672 714.509 76.3846 703.17C69.54 686.578 77.6721 660.772 89.5576 647.077C95.9104 639.789 102.658 636.558 108.549 638.064L109.156 635.634C102.306 633.879 94.6714 637.359 87.6689 645.425C81.389 652.664 76.2145 662.904 73.4815 673.538C70.5056 685.077 70.7181 695.955 74.0888 704.105C78.1033 713.823 72.9653 718.475 68.0156 722.933C64.7299 725.902 61.6264 728.708 61.9422 732.698L64.4262 732.504C64.1954 729.783 66.7098 727.488 69.6614 724.833ZM22.0526 541.194C21.4452 543.229 20.7711 548.67 21.4027 551.088C21.4938 551.446 22.01 551.95 22.9575 552.515L23.2915 552.655C28.4211 554.745 33.7747 556.237 39.2462 557.1C42.3861 557.537 45.9269 557.878 49.9535 558.048L50.9191 558.084C63.1873 558.242 76.5972 555.831 91.3553 550.839C91.4607 550.57 91.6518 550.344 91.899 550.196C92.1462 550.048 92.4355 549.985 92.7218 550.019C92.8808 550.027 93.038 550.055 93.1895 550.104C92.9331 548.074 92.8539 546.025 92.9526 543.982C92.9526 542.16 93.0195 539.53 92.6794 538.662L92.564 538.704C84.6686 544.711 68.1491 547.984 52.5832 547.984C40.9042 547.984 29.7839 546.162 23.3218 542.239C22.9749 542.025 22.6803 541.737 22.4595 541.395L22.0526 541.194ZM82.1785 482.629C82.1785 481.511 81.5712 474.57 80.6299 467.768C78.6803 453.738 77.1862 453.471 76.0991 453.277L75.6619 455.706C75.5494 455.687 75.4432 455.641 75.3521 455.572C77.2713 457.473 79.6885 479.434 79.6885 482.605L82.1785 482.629ZM38.6753 478.013C38.6753 472.262 36.75 466.395 34.8855 460.722C34.3389 459.052 33.8166 457.473 33.3489 455.906L30.9622 456.617C31.442 458.22 31.9885 459.884 32.5169 461.476C34.3389 466.942 36.1609 472.638 36.1609 477.989L38.6753 478.013ZM14.8131 501.76C11.5092 501.809 8.89769 501.851 7.45224 503.752C6.23757 505.349 6.18903 507.815 7.2883 512.012C8.11427 515.146 9.98488 517.417 12.4385 518.249C13.1378 518.481 13.87 518.598 14.6067 518.595C16.3558 518.595 18.609 517.988 21.2873 515.874L21.4209 515.753C24.0203 513.056 25.8423 508.331 24.3907 505.1C23.6498 503.448 21.7853 501.523 17.1028 501.705C16.3072 501.736 15.548 501.748 14.8253 501.76H14.8131ZM404.909 362.073H406.154H406.762C406.938 359.577 407.369 353.255 407.976 344.297C407.976 344.09 408.007 343.884 408.019 343.689C408.019 343.282 408.073 342.869 408.104 342.444C411.481 292.959 419.358 171.444 416.266 159.121C413.57 152.142 395.866 141.399 373.832 133.084C373.777 133.4 373.644 134.086 373.292 135.793C373.188 136.291 373.067 136.892 372.921 137.615C372.879 137.834 372.83 138.052 372.781 138.295C372.708 138.666 372.623 139.061 372.545 139.467C371.542 144.326 370.061 151.541 368.967 157.153C368.894 157.851 368.809 158.653 368.718 159.552C368.676 159.983 368.627 160.433 368.585 160.9C368.542 161.368 368.494 161.769 368.445 162.224C367.23 174.371 364.971 197.267 363.902 210.428C370.158 225.958 364.856 247.16 354.792 269.734C372.32 261.444 391.566 237.776 406.592 190.174L408.966 190.921C393.042 241.414 372.113 265.526 353.286 273.038C343.909 293.275 331.009 314.428 319.409 333.456C318.146 335.521 316.907 337.545 315.692 339.529L314.951 340.744L314.21 341.958C310.524 348.032 307.116 353.759 304.153 359.006C341.99 360.318 389.841 361.849 404.909 362.073ZM377.245 92.2776C376.571 92.2776 374.865 93.3101 372.957 94.7981C371.986 95.5572 370.959 96.4318 369.994 97.3549L369.89 97.4521L369.15 98.1627L368.931 97.9623L368.287 97.3549L367.971 97.0452L367.085 96.0978L365.815 94.7009C365.742 94.6219 365.676 94.543 365.597 94.464L364.516 93.2494C364.109 92.7999 363.677 92.3262 363.222 91.8343C358.151 86.3015 350.322 78.0539 344.097 73.7479C343.805 73.5475 343.49 73.3471 343.235 73.1406L342.901 72.9341C342.475 72.6608 342.075 72.4239 341.686 72.2113C339.038 70.7173 337.726 70.6505 337.082 70.9056C336.876 70.9906 336.238 71.2457 335.831 72.9523C335.54 74.167 336.141 76.8757 336.439 78.1753C336.736 78.6308 337.137 79.2868 337.653 80.1006C338.346 81.2302 339.797 83.6171 341.2 85.6273C341.656 86.2711 342.099 86.8784 342.512 87.3886C342.895 87.8968 343.34 88.3558 343.836 88.7551C343.937 88.8258 344.048 88.883 344.164 88.9251L343.963 90.0305L343.72 91.3727C343.412 91.3089 343.116 91.1939 342.846 91.0326C342.338 90.724 341.874 90.3481 341.467 89.9151C339.894 88.3178 337.999 85.4573 335.528 81.4124L335.127 80.7565C334.954 80.7165 334.786 80.6616 334.623 80.5925C334.137 80.319 333.563 80.2492 333.025 80.3982C332.564 80.6168 332.157 81.2545 331.847 82.2202C331.501 83.3498 332.041 85.3054 332.454 86.7327C332.813 88.0081 333.062 88.9555 332.928 89.7147C333.311 90.2248 333.748 90.9294 334.331 91.8525C335.619 93.9296 337.368 96.778 339.445 98.2902L337.975 100.3C335.546 98.4785 333.608 95.4418 332.211 93.1643C331.799 92.4963 331.313 91.7128 330.96 91.2391C330.553 91.46 330.234 91.8136 330.055 92.2412C329.12 94.215 329.497 98.4178 332.521 102.985C338.68 112.271 337.787 121.709 336.354 127.886C336.256 128.317 336.153 128.736 336.05 129.131C335.947 129.525 335.825 129.981 335.71 130.345C335.515 131.032 335.333 131.651 335.169 132.167C335.09 132.41 335.017 132.659 334.944 132.902V132.981C337.082 132.714 341.164 132.283 346.818 131.681C350.462 131.299 354.713 130.849 358.43 130.436C361.546 130.09 364.26 129.774 365.912 129.538L366.647 129.525V129.167C366.647 128.857 366.647 128.56 366.647 128.244C366.647 127.928 366.647 127.637 366.647 127.375C366.685 125.529 366.873 123.689 367.212 121.873C368.263 116.377 370.565 112.593 372.678 109.119L373.656 107.503C377.962 100.215 380.337 95.5755 377.251 92.2655L377.245 92.2776ZM371.245 92.885L371.354 92.6785C372.095 91.5549 374.002 86.1314 375.848 80.884C377.342 76.6327 378.885 72.2174 380.312 68.6038C382.298 63.5508 382.845 61.1761 379.996 58.9533C379.649 58.6832 379.286 58.4337 378.909 58.2062C378.569 57.9997 378.193 57.7872 377.786 57.5989C376.474 56.9126 374.816 56.1899 372.751 55.3639C371.342 54.7991 369.781 54.0156 368.129 53.1897C366.127 52.152 364.073 51.2156 361.977 50.3838C361.479 50.1955 360.993 50.0255 360.519 49.8797C360.046 49.7339 359.541 49.6003 359.08 49.5031C358.402 49.349 357.71 49.2676 357.015 49.2602C356.209 49.222 355.407 49.3866 354.681 49.7388C353.955 50.0911 353.329 50.6198 352.861 51.2766C352.6 51.6349 352.332 52.0479 352.053 52.4912C351.834 52.8496 351.616 53.2382 351.391 53.6512C351.166 54.0642 350.984 54.4165 350.784 54.8295C348.282 60.074 346.171 65.496 344.467 71.0513L344.589 71.1303C350.431 74.9079 357.768 82.3538 363.113 88.0931C363.556 88.5668 363.987 89.0284 364.4 89.4839L365.694 90.8929L367.449 92.8182L369.186 94.7252C369.836 94.1178 370.516 93.5409 371.196 92.9943C371.222 92.9578 371.244 92.9192 371.263 92.8789L371.245 92.885ZM325.731 109.994C327.602 110.236 328.537 110.358 328.537 111.548C328.537 112.903 327.322 119.268 325.586 127.946C327.93 127.946 330.766 127.946 333.772 127.946C335.175 122.207 336.202 113.176 330.432 104.436C327.28 99.6871 326.241 94.5126 327.784 91.2452C328.023 90.6799 328.379 90.1713 328.828 89.7527C329.277 89.3341 329.809 89.0149 330.39 88.8158C330.304 88.415 330.159 87.8745 330.037 87.4433C329.533 85.6213 328.908 83.3559 329.466 81.5339C329.995 79.8394 330.827 78.7037 331.956 78.1693C332.538 77.896 333.182 77.7848 333.821 77.8474C333.457 76.1651 333.074 73.8997 333.426 72.4178C333.894 70.4501 334.817 69.1807 336.177 68.6341C337.69 68.0268 339.657 68.373 342.251 69.7213C343.836 64.7047 346.575 57.2831 349.162 52.4973C348.465 51.0958 347.952 49.6095 347.638 48.0759C345.852 46.2964 329.977 42.0815 322.828 40.5389C312.983 51.4041 305.282 71.021 304.809 95.8427C304.608 107.236 320.526 109.301 325.749 109.987L325.731 109.994ZM320.138 130.534C316.293 131.851 311.945 133.26 307.341 134.748C300.582 136.941 293.281 139.303 287.815 141.356C286.996 141.86 284.894 142.735 280.91 144.393L280.746 144.46C280.558 144.569 280.382 144.678 280.224 144.782C269.292 153.892 262.241 176.612 258.627 214.327C258.196 218.858 257.819 223.51 257.491 228.241C257.431 229.164 257.364 230.094 257.303 231.023C255.414 260.351 255.36 293.001 255.305 324.747C255.305 336.164 255.268 346.975 255.159 357.415L256.981 357.476L258.232 357.518L259.483 357.567C267.379 357.834 283.03 358.375 301.31 358.982C304.244 353.735 307.639 348.05 311.313 341.94L312.06 340.726C312.303 340.319 312.552 339.912 312.801 339.511C314.247 337.126 315.728 334.697 317.247 332.223L318.328 330.443C318.534 328.117 316.354 319.736 314.077 310.875C308.471 289.327 300.831 259.944 306.673 248.514C303.9 239.394 303.482 229.72 305.458 220.395C305.805 218.676 306.467 214.898 307.384 209.669C309.43 197.929 312.534 180.189 315.765 164.89C316.67 160.639 317.484 156.995 318.237 153.892C319.451 148.766 320.508 145.079 321.389 142.425C322.385 139.388 323.211 137.706 323.818 136.734C323.991 136.396 324.23 136.095 324.519 135.849C324.809 135.603 325.145 135.417 325.507 135.301C326.515 134.967 328.944 134.354 332.187 133.637C332.29 133.109 332.485 132.459 332.746 131.609C332.849 131.262 332.965 130.886 333.08 130.479H325.063H323.794H322.518C321.334 130.485 320.49 130.503 320.156 130.527L320.138 130.534ZM363.362 220.273L360.896 220.656C360.459 217.844 363.993 181.896 365.67 165.218L365.062 165.176C365.062 164.781 365.208 164.004 365.39 162.923C365.457 162.528 365.536 162.097 365.621 161.623L365.858 160.311C366.866 154.924 368.664 146.118 370.376 137.779C370.486 137.269 370.583 136.777 370.68 136.303C370.814 135.696 370.935 135.089 371.038 134.572C371.196 133.795 371.318 133.194 371.378 132.878V132.793C371.378 132.738 371.299 132.665 371.148 132.562C370.51 132.189 369.803 131.95 369.071 131.858C368.803 131.815 368.524 131.773 368.226 131.742C368 131.816 367.768 131.875 367.534 131.918C367.157 131.991 366.726 132.052 366.246 132.125C365.093 132.289 363.459 132.489 361.248 132.732C357.191 133.206 351.816 133.771 347.079 134.269C341.006 134.906 334.762 135.568 333.918 135.751C333.88 135.753 333.841 135.753 333.803 135.751C330.408 136.467 327.729 137.123 326.375 137.573C325.877 137.864 324.201 139.965 320.812 153.904C320.654 154.511 320.502 155.191 320.338 155.878C320.217 156.388 320.095 156.91 319.974 157.445C319.366 159.953 318.759 162.771 318.103 165.947C314.927 181.064 311.878 198.488 309.868 210.015C308.951 215.269 308.283 219.058 307.924 220.814C303.066 244.834 313.931 267.457 332.734 272.322C338.437 273.797 344.802 273.536 351.47 271.107C360.665 251.114 366.253 232.201 363.435 217.504C363.348 218.424 363.323 219.349 363.362 220.273ZM339.925 275.747C337.286 275.751 334.657 275.418 332.102 274.757C321.043 271.896 312.534 263.357 307.973 252.037C304.554 264.232 311.665 291.58 316.512 310.195C318.528 317.957 319.913 323.356 320.52 326.872C330.778 310.019 341.68 291.762 350.031 274.204C346.756 275.211 343.351 275.73 339.925 275.747ZM265.381 400.706L267.737 401.52C268.794 398.483 277.952 367.685 279.489 360.719C279.61 360.178 279.683 359.778 279.708 359.553L278.463 359.438L277.248 359.328C277.248 359.328 277.248 359.377 277.248 359.395C277.248 359.638 277.132 360.057 276.999 360.61C275.329 367.649 266.48 397.542 265.381 400.706ZM255.712 70.1889C256.392 68.3669 257.078 66.466 257.643 64.8383C258.014 63.7755 258.329 62.8341 258.56 62.0689C258.56 61.9778 258.621 61.8745 258.645 61.7834C258.957 60.7428 259.204 59.6841 259.386 58.6131C259.842 55.8133 259.198 55.3275 259.161 55.3032C259.103 55.2706 259.039 55.2499 258.973 55.2424C258.898 55.2351 258.823 55.2351 258.749 55.2424C258.405 55.2568 258.065 55.3224 257.74 55.4368C257.323 55.5688 256.917 55.7333 256.526 55.9287C256.149 56.117 255.718 56.3539 255.226 56.6515L255.001 56.8276L255.038 56.8944L254.631 57.113C253.762 57.7872 252.997 58.3277 252.432 58.765C251.815 59.2382 251.175 59.6801 250.513 60.089C248.542 61.7815 246.73 63.6519 245.102 65.6764L243.134 64.152C245.661 60.9909 248.619 58.2003 251.922 55.8619C252.614 55.3578 253.282 54.9084 253.902 54.5319C254.619 53.967 255.372 53.3536 256.131 52.7099C256.514 52.3941 256.89 52.0722 257.267 51.7442C257.643 51.4162 258.026 51.0701 258.396 50.736C259.004 50.1834 259.574 49.6307 260.109 49.0902C260.51 48.6893 260.88 48.2885 261.22 47.9059C261.606 47.4711 261.968 47.017 262.307 46.5454C262.447 46.3511 262.575 46.1628 262.684 45.9745C263.209 45.1151 263.564 44.1624 263.729 43.1687C263.837 42.7361 263.857 42.2861 263.787 41.8456C263.717 41.4052 263.559 40.9835 263.322 40.6057C263.217 40.4893 263.086 40.3997 262.939 40.3446C262.486 40.1918 261.995 40.1918 261.542 40.3446C261.246 40.4187 260.956 40.5141 260.674 40.63L260.34 40.7758L259.732 41.0308L259.125 41.2738L258.791 41.4135C258.329 41.626 257.837 41.869 257.309 42.1423C256.933 42.3427 256.538 42.5553 256.137 42.786C255.736 43.0168 255.366 43.2294 254.965 43.4663C251.369 45.6344 247.221 48.7197 244.598 51.7624L242.709 50.1348C245.636 46.7459 250.471 43.1504 254.631 40.7636C255.032 40.5389 255.42 40.3203 255.809 40.1138L256.331 39.8344C256.524 39.6484 256.738 39.4853 256.969 39.3485L257.127 39.2453C257.734 38.8687 258.269 38.5226 258.742 38.1946C259.216 37.8666 259.562 37.6176 259.896 37.3626C260.358 36.9982 260.734 36.6823 261.032 36.3969C262.411 35.0729 262.186 34.5324 262.137 34.4473C261.99 34.1375 261.78 33.8615 261.521 33.6368C261.262 33.412 260.959 33.2434 260.631 33.1416C260.217 33.0464 259.789 33.0279 259.368 33.0869C258.957 33.141 258.55 33.2283 258.153 33.3481C257.533 33.5352 256.924 33.7603 256.331 34.0222C255.955 34.1801 255.566 34.3563 255.117 34.5567L254.965 34.6295C254.625 34.7935 254.279 34.9636 253.932 35.1458C247.671 38.3768 240.018 44.0129 239.964 44.0493C229.25 52.6491 223.493 83.6231 224.537 91.4213C225.145 91.4213 225.959 91.5002 226.864 91.6035C233.623 92.3809 246.778 95.3689 249.335 96.2253H249.438C250.047 96.4653 250.677 96.6463 251.321 96.7658C251.6 96.1585 251.685 93.9053 251.782 91.2998C251.88 88.6944 252.013 84.9836 252.39 80.0824C252.554 78.8859 253.756 75.5456 255.712 70.1889ZM265.223 66.302C264.731 60.5141 267.154 54.2525 269.104 49.2177C271.217 43.7517 272.377 40.3749 270.616 39.6643L270.47 39.6097L270.342 39.5125C269.213 38.6865 267.816 39.2878 266.14 40.7697C266.607 42.6342 266.14 45.0818 264.858 47.2621C264.251 48.2249 263.552 49.126 262.769 49.9526L265.022 68.2515C265.179 67.6141 265.247 66.958 265.223 66.302ZM259.69 81.2728L258.342 70.3408C258.257 70.5837 258.165 70.8266 258.074 71.0695C256.726 74.7682 255.038 79.3718 254.965 80.3253C254.679 83.9693 254.528 86.9331 254.43 89.3017C256.468 86.8277 258.223 84.1348 259.666 81.2728H259.69ZM264.591 151.808C264.069 152.124 259.793 154.45 258.02 154.554C257.813 164.064 257.692 173.672 258.087 174.96L255.718 175.731C255.068 173.715 255.347 160.864 255.815 142.935C255.955 137.536 256.082 132.684 256.113 129.829C256.058 124.29 256.113 116.03 256.113 108.165C256.113 105.736 256.113 103.586 256.113 103.04C255.949 102.578 255.141 101.315 251.169 99.5838C250.416 99.2559 249.608 98.9401 248.74 98.6364L248.63 98.5939C245.697 97.5675 233.666 95.0106 227.453 94.1482C226.104 94.0389 224.841 93.9721 223.693 93.9599L222.715 94.2332L222.63 93.9599C220.553 93.9964 218.986 94.2211 218.148 94.6705C217.583 95.2414 214.711 100.416 209.536 146.488C206.639 172.348 204.514 197.875 204.502 202.46C204.447 219.502 211.443 230.082 224.726 233.051C233.289 234.965 243.905 233.586 254.898 229.28C257.327 192.591 262.708 161.69 274.563 147.017C271.138 148.412 267.8 150.013 264.567 151.808H264.591Z" fill="#292929"/>
<path d="M229.773 726.917C255.955 725.867 275.323 716.921 284.305 689.324L283.813 690.83C284.846 691.376 286.753 691.795 289.207 692.123C289.103 691.127 288.994 690.089 288.885 689.044C288.514 685.564 288.223 682.661 287.992 680.226L289.207 680.292L290.47 680.359C290.755 683.317 291.077 686.341 291.332 688.783C291.466 690.058 291.593 691.273 291.715 692.427C298.59 693.083 308.222 693.204 315.735 693.302C315.735 689.554 315.771 685.291 315.783 681.726L317.028 681.793L318.243 681.859C318.243 684.252 318.243 686.961 318.243 689.615C318.243 690.884 318.243 692.135 318.243 693.338C321.28 693.381 323.855 693.429 325.464 693.526C323.26 699.836 324.602 707.932 324.857 715.068C319.391 719.799 312.534 722.46 304.572 725.551C300.989 726.942 297.284 728.381 293.336 730.13L292.638 730.434C285.071 733.726 277.339 737.722 277.382 742.319C277.382 742.616 277.417 742.912 277.485 743.2C255.882 743.237 218.92 741.439 214.243 739.356C214.274 739.331 216.266 727.458 229.773 726.917Z" fill="#292929"/>
<path d="M380.312 706.789C380.348 710.361 380.379 714.077 380.597 717.454C381.423 730.311 381.964 739.002 381.909 742.088C378.787 741.82 375.653 741.712 372.52 741.766C370.795 741.766 369.307 741.766 368.536 741.705C366.829 741.614 365.772 740.169 364.467 738.134C363.386 736.452 362.262 734.721 360.276 734.83C358.29 734.939 356.45 737.023 353.765 742.446C351.221 743.242 338.054 744.377 319.184 744.997C297.32 745.713 285.331 745.191 283.424 744.389C282.644 744.104 281.916 743.694 281.268 743.175C281.125 743.071 281.004 742.939 280.913 742.788C280.821 742.637 280.76 742.469 280.734 742.294C280.734 741.383 282.003 738.699 293.992 733.482L294.714 733.166C296.354 732.437 297.958 731.769 299.537 731.125L300.144 730.876C302.069 730.099 303.952 729.364 305.804 728.647C312.965 725.866 319.463 723.345 324.941 719.301C331.209 714.673 336.147 708.047 339.232 696.744C342.067 697.288 344.941 697.601 347.826 697.679L349.04 697.734L350.292 697.777C357.027 697.995 365.475 697.898 374.087 697.74H375.338H375.502H376.589L379.996 697.679C380.245 699.914 380.276 703.273 380.312 706.789Z" fill="#292929"/>
<path d="M274.096 13.1363C272.174 14.2137 270.358 15.4704 268.672 16.8897L266.99 15.0677C268.794 13.5394 270.741 12.187 272.802 11.0289C275.573 9.46722 278.161 7.60349 280.521 5.47179C280.564 5.42928 287.251 0.303387 287.858 0.0908203L288.344 1.50591L288.866 2.35617C288.386 2.65376 282.726 6.85651 282.234 7.28165C279.744 9.52559 277.015 11.489 274.096 13.1363V13.1363Z" fill="#292929"/>
<path d="M275.851 24.3356L274.745 22.1067C277.175 20.892 281.469 20.0721 285.629 19.2644C288.309 18.8158 290.959 18.2074 293.567 17.4424L294.375 19.7806C291.657 20.5896 288.893 21.2305 286.097 21.6998C282.106 22.4833 277.976 23.2849 275.851 24.3356Z" fill="#292929"/>
<path d="M292.438 31.4225V33.9126C290.569 33.8591 288.706 33.6765 286.862 33.366C285.001 33.0499 283.12 32.8652 281.232 32.8133V30.3232C283.24 30.373 285.241 30.5658 287.221 30.9002C288.945 31.1945 290.689 31.369 292.438 31.4225V31.4225Z" fill="#292929"/>
</svg>
