<svg width="763" height="911" viewBox="0 0 763 911" fill="none" xmlns="http://www.w3.org/2000/svg">
<path d="M498.378 84.3576C495.28 87.297 491.982 89.113 489.073 90.9107L502.544 81.1934C500.698 82.5963 498.554 84.1875 498.378 84.3576Z" fill="white"/>
<path d="M489.073 90.9121L484.822 93.9488C486.144 92.8098 487.567 91.7933 489.073 90.9121Z" fill="white"/>
<path d="M502.544 81.2066C503.935 80.1741 505.161 79.2874 505.265 79.251L502.544 81.2066Z" fill="white"/>
<path d="M505.362 97.9931L510.974 96.6084C509.133 97.1831 507.259 97.6455 505.362 97.9931Z" fill="white"/>
<path d="M505.362 97.9932L492.298 101.218C495.043 99.8637 500.631 98.9467 505.362 97.9932Z" fill="white"/>
<path d="M504.154 110.152L498.232 109.545C500.218 109.607 502.197 109.81 504.154 110.152Z" fill="white"/>
<path d="M504.154 110.151L509.438 110.668C507.666 110.617 505.901 110.445 504.154 110.151Z" fill="white"/>
<path d="M592.624 772.364H592.466H591.373C591.634 769.029 591.901 765.471 592.126 762.452H594.622C594.434 764.991 594.209 767.918 594.015 770.827C593.978 771.325 593.942 771.817 593.899 772.303L592.624 772.364Z" fill="#292929"/>
<path d="M564.723 772.322C564.723 771.605 564.674 770.877 564.65 770.142C564.54 766.947 564.455 764.226 564.395 761.906L565.64 762.003L566.891 762.082C566.964 764.894 567.061 767.737 567.14 770.057C567.14 770.871 567.194 771.66 567.219 772.419L565.968 772.377L564.723 772.322Z" fill="#292929"/>
<path d="M535.31 757.344H535.255C535.2 755.977 535.127 753.846 535.048 751.052C534.538 733.099 533.639 687.859 533.834 642.916C534.119 579.498 536.391 538.759 540.435 523.964L545.051 552.175C545.428 557.033 546.017 566.811 546.8 581.363L542.519 757.726L535.31 757.344Z" fill="#292929"/>
<path d="M626.088 442.594H622.972H621.727C619.522 470.167 616.717 518.431 613.789 568.737C613.091 580.805 612.38 593.03 611.664 605.134C608.846 653.071 603.033 751.848 599.717 760.162C598.624 760.083 596.924 760.047 594.81 760.029H591.124L591.579 758.346C591.76 758.395 591.927 758.486 592.067 758.61C592.207 758.734 592.317 758.889 592.387 759.063C592.412 759.119 592.431 759.178 592.441 759.239C592.421 759.074 592.411 758.908 592.411 758.741C592.411 758.267 592.411 757.526 592.411 756.5C592.411 756.111 592.411 755.68 592.448 755.212C592.484 754.745 592.448 754.387 592.49 753.931C593.097 736.021 596.571 676.52 599.93 618.696C604.376 542.348 608.955 463.468 609.398 442.29C609.398 441.853 609.398 441.434 609.398 441.075H608.147H606.932C606.932 441.458 606.932 441.871 606.932 442.29C606.762 450.538 605.93 468.011 604.734 490.573C598.569 479.125 585.773 450.453 584.692 441.652C584.641 441.25 584.618 440.844 584.625 440.438L583.41 440.395L582.153 440.347C582.143 440.764 582.161 441.182 582.208 441.598C583.295 452.281 599.784 487.591 604.424 495.043L604.509 495.183C602.633 530.147 599.972 576.001 597.501 618.599C595.351 655.519 593.328 690.392 591.907 716.453C591.148 730.421 590.626 740.649 590.31 747.736C590.213 749.874 590.14 751.714 590.085 753.281C590.085 753.731 590.085 754.162 590.043 754.563C590 754.964 590.012 755.449 590 755.844C590 756.057 590 756.269 590 756.451C589.958 758.419 589.933 759.488 590.14 760.065H588.621C583.022 760.065 573.772 760.065 566.891 759.676L565.64 759.597L564.425 759.5C561.316 759.245 559.002 758.893 558.249 758.346C557.921 754.429 556.524 725.435 554.902 691.983C553.76 668.364 552.473 641.574 551.258 617.676C550.499 602.584 549.886 590.716 549.382 581.4L549.776 565.154L547.572 551.701C547.526 550.401 547.372 549.107 547.11 547.832C546.855 546.909 544.681 534.101 542.367 519.895L538.723 497.491L536.263 497.891C536.98 502.295 538.316 510.481 539.719 519.014C528.586 541.929 531.514 710.634 532.656 750.773C532.656 751.228 532.656 751.66 532.692 752.079C532.728 752.498 532.692 752.971 532.728 753.384C532.783 755.012 532.826 756.33 532.862 757.308L507.354 755.953L506.091 755.887L504.876 755.82L501.906 755.662L481.895 503.6L480.759 505.064L479.629 506.516C452.609 540.945 416.254 577.185 392.945 589.921C384.788 594.372 377.816 598.381 371.081 602.262C352.302 613.06 337.471 621.587 312.382 630.77L311.368 631.146V631.092L311.198 631.152C310.882 647.733 320.138 666.59 348.13 706.893C349.575 708.964 351.324 711.357 353.353 714.126C367.552 733.512 391.323 765.95 384.248 792.351C383.835 793.887 383.531 795.345 383.294 796.73C398.477 794.665 409.507 777.465 400.032 740.145C397.232 729.109 380.039 709.778 381.515 709.213C398.071 702.945 418.325 735.401 420.518 745.392C423.141 757.369 434.098 798.971 394.172 816.45C385.881 820.094 375.417 820.306 368.664 819.122C363.671 820.045 356.796 820.501 347.273 820.598C344.771 820.598 342.038 820.634 339.105 820.634C327.984 820.634 314.052 820.477 299.482 820.313C274.272 820.027 248.199 819.705 236.423 820.313C233.684 820.434 229.511 818.023 227.574 813.881C226.305 811.178 225.084 805.664 231.084 799.135C233.289 796.783 235.764 794.699 238.457 792.928C238.457 790.231 238.615 787.796 238.791 784.771C238.986 781.383 239.204 777.538 239.338 772.017C239.557 762.579 239.21 724.7 238.907 691.285C238.767 675.64 238.627 660.857 238.561 649.925C238.524 644.07 238.506 639.783 238.512 636.819C238.512 634.754 238.512 633.436 238.561 632.568C237.121 631.638 236.259 630.691 236.022 629.786C235.238 626.749 235.967 618.034 237.777 616.698C237.988 616.539 238.237 616.438 238.5 616.406C238.439 616.06 238.378 615.708 238.318 615.338C237.82 612.301 237.261 608.863 234.261 607.807C226.833 605.183 219.114 595.302 217.735 586.659C217.025 582.226 218.087 578.764 220.772 576.693C224.761 573.534 229.142 570.905 233.805 568.87C238.664 566.678 239.429 566.344 241.543 553.08C242.059 549.881 242.38 546.655 242.502 543.417C242.751 538.431 242.897 535.425 247.324 526.12C248.333 523.995 249.699 523.691 250.671 523.806C257.054 524.572 265.314 550.833 265.909 553.292C266.188 553.578 268.277 554.999 281.76 555.066C282.325 552.94 283.054 550.371 283.825 547.668C285.848 540.569 288.362 531.732 289.109 526.369C289.631 522.634 291.806 522.343 292.717 522.397C299.245 522.75 310.675 543.047 311.325 564.066C311.501 569.867 311.107 581.108 310.718 592.004C310.402 600.98 310.044 611.007 310.214 614.238C310.503 614.286 310.779 614.396 311.022 614.56C312.546 615.587 312.503 618.332 312.449 622.134C312.347 624.129 312.433 626.13 312.704 628.11C336.876 619.164 351.452 610.783 369.793 600.215C376.547 596.334 383.531 592.32 391.718 587.85C415.331 574.956 452.409 537.775 479.332 503.023L480.461 501.548L481.615 499.956L476.757 438.045L475.499 438.002L474.248 437.96L470.914 437.844L469.699 437.802V436.587C469.815 425.783 469.833 414.583 469.857 402.722C469.912 371.797 469.967 339.189 471.783 310.013C464.124 312.886 456.636 314.386 449.858 314.386C446.961 314.401 444.071 314.1 441.24 313.487C426.889 310.274 419.018 298.546 419.072 280.454C419.072 275.711 421.253 249.662 424.216 223.401C429.919 172.822 432.834 171.17 433.934 170.527C435.033 169.883 436.837 169.579 439.12 169.488C438.598 164.872 439.8 155.574 442.193 146.482C444.149 139.042 448.473 125.712 455.482 120.082C455.549 120.027 463.984 113.79 470.665 110.492L469.056 97.428C468.946 96.5223 469.199 95.61 469.76 94.8906C470.321 94.1712 471.145 93.7035 472.05 93.5897C472.956 93.4797 473.868 93.7331 474.587 94.2942C475.307 94.8553 475.774 95.6786 475.888 96.5838L477.364 108.554C478.193 108.609 478.994 108.877 479.689 109.333C480.383 109.788 480.949 110.416 481.33 111.154C482.283 112.763 481.506 114.385 480.188 115.794C480.795 115.913 481.361 116.185 481.834 116.583C484.111 114.694 486.401 113.844 488.673 115.417C492.651 117.154 490.683 122.238 488.405 128.117C486.456 133.157 484.239 138.878 484.688 144.089C484.834 145.79 484.045 148.784 482.733 152.173L484.652 167.672C484.706 168.124 484.67 168.582 484.547 169.02C484.423 169.457 484.214 169.866 483.932 170.223C483.65 170.58 483.3 170.877 482.902 171.098C482.505 171.319 482.067 171.459 481.615 171.511C481.476 171.52 481.336 171.52 481.196 171.511C480.355 171.509 479.542 171.199 478.914 170.64C478.285 170.08 477.883 169.31 477.783 168.474L477.176 163.409C475.123 166.792 472.991 169.537 471.272 170.612C471.163 173.363 471.048 174.948 470.574 175.92C473.55 177.396 475.19 178.914 475.566 180.529C475.615 180.73 475.615 180.73 475.566 186.141C475.566 191.085 475.506 199.223 475.536 205.424C475.536 205.892 475.566 206.699 475.536 207.768C475.566 210.775 475.615 213.022 475.706 213.714L475.421 213.751C475.372 215.894 475.311 218.336 475.238 220.966C475.165 223.595 475.087 226.784 475.014 230.003C476.831 229.397 478.581 228.605 480.237 227.64C483.881 225.436 491.169 222.411 496.635 220.158C501.171 217.583 512.535 213.902 523.546 210.337C528.192 208.831 532.583 207.41 536.439 206.086C537.629 205.982 538.823 205.937 540.016 205.952C541.34 199.351 542.573 193.022 542.92 190.49L542.385 190.423C536.609 189.664 519.033 187.356 519.306 173.776C519.665 154.949 524.165 137.585 531.951 124.946C533.518 122.376 535.294 119.938 537.259 117.658C534.623 116.499 532.334 114.672 530.62 112.358C528.906 110.043 527.826 107.321 527.487 104.461C526.619 97.4341 529.917 90.8931 536.36 86.9697C542.27 83.3257 551.483 84.9291 559.39 88.4638C560.306 89.3008 561.172 90.1911 561.984 91.13C562.7 91.9499 563.362 92.8001 563.964 93.6382C564.776 94.7718 565.497 95.9679 566.12 97.2154C568.72 102.66 572.309 107.574 576.705 111.706L576.967 112.077L579.026 110.674C578.877 110.423 578.702 110.189 578.503 109.976C574.277 106.04 570.836 101.339 568.361 96.1222C568.239 95.8793 568.112 95.6242 567.972 95.3752C567.674 94.8043 567.334 94.2213 566.958 93.6322C566.581 93.043 566.108 92.3385 565.634 91.6826C567.632 92.6361 570.158 93.5411 572.995 94.5614C578.837 96.6506 586.113 99.2561 591.907 103.605C600.282 109.897 601.242 122.286 598.588 131.129C598.369 131.846 598.065 132.987 597.689 134.427C602.292 137.427 602.341 140.676 599.638 147.539C598.223 151.08 596.705 155.477 595.187 159.728C593.893 163.409 592.861 166.33 592.041 168.45C593.644 167.703 595.077 167.551 595.958 168.48C600.762 173.399 596.711 180.22 592.794 186.809C592.472 187.356 592.138 187.902 591.804 188.455C588.955 193.126 586.016 197.948 586.125 206.772C607.582 214.224 631.93 226.517 635.617 236.343L635.653 236.465C639.686 251.855 626.695 433.727 626.136 441.458L626.088 442.594ZM286.661 802.833C291.745 798.236 298.067 792.509 293.385 781.17C286.54 764.578 294.672 738.772 306.558 725.077C312.91 717.789 319.658 714.558 325.549 716.064L326.156 713.634C319.306 711.879 311.671 715.359 304.669 723.425C298.389 730.664 293.215 740.904 290.482 751.538C287.506 763.077 287.718 773.955 291.089 782.105C295.103 791.823 289.965 796.475 285.016 800.933C281.73 803.902 278.626 806.708 278.942 810.698L281.426 810.504C281.195 807.783 283.71 805.488 286.661 802.833ZM239.053 619.194C238.445 621.229 237.771 626.67 238.403 629.088C238.494 629.446 239.01 629.95 239.957 630.515L240.292 630.655C245.421 632.745 250.775 634.237 256.246 635.1C259.386 635.537 262.927 635.878 266.953 636.048L267.919 636.084C280.187 636.242 293.597 633.831 308.355 628.839C308.461 628.57 308.652 628.344 308.899 628.196C309.146 628.048 309.435 627.985 309.722 628.019C309.881 628.027 310.038 628.055 310.189 628.104C309.933 626.074 309.854 624.025 309.953 621.982C309.953 620.16 310.019 617.53 309.679 616.662L309.564 616.704C301.669 622.711 285.149 625.984 269.583 625.984C257.904 625.984 246.784 624.162 240.322 620.239C239.975 620.025 239.68 619.737 239.46 619.395L239.053 619.194ZM299.179 560.629C299.179 559.511 298.571 552.57 297.63 545.768C295.68 531.738 294.186 531.471 293.099 531.277L292.662 533.706C292.549 533.687 292.443 533.641 292.352 533.572C294.271 535.473 296.688 557.434 296.688 560.605L299.179 560.629ZM255.675 556.013C255.675 550.262 253.75 544.395 251.886 538.722C251.339 537.052 250.817 535.473 250.349 533.906L247.962 534.617C248.442 536.22 248.989 537.884 249.517 539.476C251.339 544.942 253.161 550.638 253.161 555.989L255.675 556.013ZM231.813 579.76C228.509 579.809 225.898 579.851 224.452 581.752C223.238 583.349 223.189 585.815 224.288 590.012C225.114 593.146 226.985 595.417 229.439 596.249C230.138 596.481 230.87 596.598 231.607 596.595C233.356 596.595 235.609 595.988 238.287 593.874L238.421 593.753C241.02 591.056 242.842 586.331 241.391 583.1C240.65 581.448 238.785 579.523 234.103 579.705C233.307 579.736 232.548 579.748 231.825 579.76H231.813ZM621.909 440.073H623.154H623.762C623.938 437.577 624.369 431.255 624.976 422.297C624.976 422.09 625.007 421.884 625.019 421.689C625.019 421.282 625.073 420.869 625.104 420.444C628.481 370.959 636.358 249.444 633.266 237.121C630.57 230.142 612.866 219.399 590.832 211.084C590.777 211.4 590.644 212.086 590.292 213.793C590.188 214.291 590.067 214.892 589.921 215.615C589.879 215.834 589.83 216.052 589.781 216.295C589.708 216.666 589.623 217.061 589.545 217.467C588.542 222.326 587.061 229.541 585.967 235.153C585.894 235.851 585.809 236.653 585.718 237.552C585.676 237.983 585.627 238.433 585.585 238.9C585.542 239.368 585.494 239.769 585.445 240.224C584.23 252.371 581.971 275.267 580.902 288.428C587.158 303.958 581.856 325.16 571.792 347.734C589.32 339.444 608.566 315.776 623.592 268.174L625.966 268.921C610.042 319.414 589.113 343.526 570.286 351.038C560.909 371.275 548.009 392.428 536.409 411.456C535.146 413.521 533.907 415.545 532.692 417.529L531.951 418.744L531.21 419.958C527.524 426.032 524.116 431.759 521.153 437.006C558.99 438.318 606.841 439.849 621.909 440.073ZM594.245 170.278C593.571 170.278 591.865 171.31 589.957 172.798C588.986 173.557 587.959 174.432 586.994 175.355L586.89 175.452L586.15 176.163L585.931 175.962L585.287 175.355L584.971 175.045L584.085 174.098L582.815 172.701C582.742 172.622 582.676 172.543 582.597 172.464L581.516 171.249C581.109 170.8 580.677 170.326 580.222 169.834C575.151 164.301 567.322 156.054 561.097 151.748C560.805 151.547 560.49 151.347 560.235 151.141L559.901 150.934C559.475 150.661 559.075 150.424 558.686 150.211C556.038 148.717 554.726 148.65 554.082 148.906C553.876 148.991 553.238 149.246 552.831 150.952C552.54 152.167 553.141 154.876 553.439 156.175C553.736 156.631 554.137 157.287 554.653 158.101C555.346 159.23 556.797 161.617 558.2 163.627C558.656 164.271 559.099 164.878 559.512 165.389C559.895 165.897 560.34 166.356 560.836 166.755C560.937 166.826 561.048 166.883 561.164 166.925L560.963 168.031L560.72 169.373C560.412 169.309 560.116 169.194 559.846 169.033C559.338 168.724 558.874 168.348 558.467 167.915C556.894 166.318 554.999 163.457 552.528 159.412L552.127 158.757C551.954 158.716 551.786 158.662 551.623 158.593C551.137 158.319 550.563 158.249 550.025 158.398C549.564 158.617 549.157 159.255 548.847 160.22C548.501 161.35 549.041 163.305 549.454 164.733C549.813 166.008 550.062 166.956 549.928 167.715C550.311 168.225 550.748 168.929 551.331 169.853C552.619 171.93 554.368 174.778 556.445 176.29L554.975 178.3C552.546 176.479 550.608 173.442 549.211 171.164C548.799 170.496 548.313 169.713 547.96 169.239C547.553 169.46 547.234 169.814 547.055 170.241C546.12 172.215 546.497 176.418 549.521 180.985C555.68 190.271 554.787 199.709 553.354 205.886C553.256 206.317 553.153 206.736 553.05 207.131C552.947 207.525 552.825 207.981 552.71 208.345C552.515 209.032 552.333 209.651 552.169 210.167C552.09 210.41 552.017 210.659 551.944 210.902V210.981C554.082 210.714 558.164 210.283 563.818 209.681C567.462 209.299 571.713 208.849 575.43 208.436C578.546 208.09 581.26 207.774 582.912 207.538L583.647 207.525V207.167C583.647 206.857 583.647 206.56 583.647 206.244C583.647 205.928 583.647 205.637 583.647 205.375C583.685 203.529 583.873 201.689 584.212 199.873C585.263 194.377 587.565 190.593 589.678 187.119L590.656 185.503C594.962 178.215 597.337 173.575 594.251 170.265L594.245 170.278ZM588.245 170.885L588.354 170.678C589.095 169.555 591.002 164.131 592.848 158.884C594.342 154.633 595.885 150.217 597.312 146.604C599.298 141.551 599.845 139.176 596.996 136.953C596.649 136.683 596.286 136.434 595.909 136.206C595.569 136 595.193 135.787 594.786 135.599C593.474 134.913 591.816 134.19 589.751 133.364C588.342 132.799 586.781 132.016 585.129 131.19C583.127 130.152 581.073 129.216 578.977 128.384C578.479 128.196 577.993 128.025 577.519 127.88C577.046 127.734 576.541 127.6 576.08 127.503C575.402 127.349 574.71 127.268 574.015 127.26C573.209 127.222 572.407 127.387 571.681 127.739C570.955 128.091 570.329 128.62 569.861 129.277C569.6 129.635 569.332 130.048 569.053 130.491C568.834 130.85 568.616 131.238 568.391 131.651C568.166 132.064 567.984 132.416 567.784 132.829C565.282 138.074 563.171 143.496 561.467 149.051L561.589 149.13C567.431 152.908 574.768 160.354 580.113 166.093C580.556 166.567 580.987 167.028 581.4 167.484L582.694 168.893L584.449 170.818L586.186 172.725C586.836 172.118 587.516 171.541 588.196 170.994C588.222 170.958 588.244 170.919 588.263 170.879L588.245 170.885ZM542.731 187.994C544.602 188.236 545.537 188.358 545.537 189.548C545.537 190.903 544.322 197.268 542.586 205.946C544.93 205.946 547.766 205.946 550.772 205.946C552.175 200.207 553.202 191.176 547.432 182.436C544.28 177.687 543.241 172.513 544.784 169.245C545.023 168.68 545.379 168.171 545.828 167.753C546.277 167.334 546.809 167.015 547.39 166.816C547.304 166.415 547.159 165.874 547.037 165.443C546.533 163.621 545.908 161.356 546.466 159.534C546.995 157.839 547.827 156.704 548.956 156.169C549.538 155.896 550.182 155.785 550.821 155.847C550.457 154.165 550.074 151.9 550.426 150.418C550.894 148.45 551.817 147.181 553.177 146.634C554.69 146.027 556.657 146.373 559.251 147.721C560.836 142.705 563.575 135.283 566.162 130.497C565.465 129.096 564.952 127.61 564.638 126.076C562.852 124.296 546.977 120.082 539.828 118.539C529.983 129.404 522.282 149.021 521.809 173.843C521.608 185.236 537.526 187.301 542.749 187.987L542.731 187.994ZM537.138 208.534C533.293 209.851 528.945 211.26 524.341 212.748C517.582 214.941 510.281 217.303 504.815 219.356C503.996 219.86 501.894 220.735 497.91 222.393L497.746 222.46C497.558 222.569 497.382 222.678 497.224 222.782C486.292 231.892 479.241 254.612 475.627 292.327C475.196 296.858 474.819 301.51 474.491 306.241C474.431 307.164 474.364 308.094 474.303 309.023C472.414 338.351 472.36 371.001 472.305 402.747C472.305 414.164 472.268 424.975 472.159 435.415L473.981 435.476L475.232 435.518L476.483 435.567C484.379 435.834 500.03 436.375 518.31 436.982C521.244 431.735 524.639 426.05 528.313 419.94L529.06 418.726C529.303 418.319 529.552 417.912 529.801 417.511C531.247 415.126 532.728 412.697 534.247 410.223L535.328 408.443C535.534 406.117 533.354 397.736 531.077 388.875C525.471 367.327 517.831 337.944 523.673 326.514C520.9 317.394 520.482 307.72 522.458 298.395C522.805 296.676 523.467 292.898 524.384 287.669C526.43 275.929 529.534 258.189 532.765 242.89C533.67 238.639 534.484 234.995 535.237 231.892C536.451 226.766 537.508 223.079 538.389 220.425C539.385 217.388 540.211 215.706 540.818 214.734C540.991 214.396 541.23 214.095 541.519 213.849C541.809 213.603 542.145 213.417 542.507 213.301C543.515 212.967 545.944 212.354 549.187 211.637C549.29 211.109 549.485 210.459 549.746 209.609C549.849 209.262 549.965 208.886 550.08 208.479H542.063H540.794H539.518C538.334 208.485 537.49 208.503 537.156 208.527L537.138 208.534ZM580.362 298.273L577.896 298.656C577.459 295.844 580.993 259.896 582.67 243.218L582.062 243.176C582.062 242.781 582.208 242.004 582.39 240.923C582.457 240.528 582.536 240.097 582.621 239.623L582.858 238.311C583.866 232.924 585.664 224.118 587.376 215.779C587.486 215.269 587.583 214.777 587.68 214.303C587.814 213.696 587.935 213.089 588.038 212.572C588.196 211.795 588.318 211.194 588.378 210.878V210.793C588.378 210.738 588.299 210.665 588.148 210.562C587.51 210.189 586.803 209.95 586.071 209.858C585.803 209.815 585.524 209.773 585.226 209.742C585 209.816 584.768 209.875 584.534 209.918C584.157 209.991 583.726 210.052 583.246 210.125C582.093 210.289 580.459 210.489 578.248 210.732C574.191 211.206 568.816 211.771 564.079 212.269C558.006 212.906 551.762 213.568 550.918 213.751C550.88 213.753 550.841 213.753 550.803 213.751C547.408 214.467 544.729 215.123 543.375 215.573C542.877 215.864 541.201 217.965 537.812 231.904C537.654 232.511 537.502 233.191 537.338 233.878C537.217 234.388 537.095 234.91 536.974 235.445C536.366 237.953 535.759 240.771 535.103 243.947C531.927 259.064 528.878 276.488 526.868 288.015C525.951 293.269 525.283 297.058 524.924 298.814C520.066 322.834 530.931 345.457 549.734 350.322C555.437 351.797 561.802 351.536 568.47 349.107C577.665 329.114 583.253 310.201 580.435 295.504C580.348 296.424 580.323 297.349 580.362 298.273ZM556.925 353.747C554.286 353.751 551.657 353.418 549.102 352.757C538.043 349.896 529.534 341.357 524.973 330.037C521.554 342.232 528.665 369.58 533.512 388.195C535.528 395.957 536.913 401.356 537.52 404.872C547.778 388.019 558.68 369.762 567.031 352.204C563.756 353.211 560.351 353.73 556.925 353.747ZM482.381 478.706L484.737 479.52C485.794 476.483 494.952 445.685 496.489 438.719C496.61 438.178 496.683 437.778 496.708 437.553L495.463 437.438L494.248 437.328C494.248 437.328 494.248 437.377 494.248 437.395C494.248 437.638 494.132 438.057 493.999 438.61C492.329 445.649 483.48 475.542 482.381 478.706ZM472.712 148.189C473.392 146.367 474.078 144.466 474.643 142.838C475.014 141.775 475.329 140.834 475.56 140.069C475.56 139.978 475.621 139.875 475.645 139.783C475.957 138.743 476.204 137.684 476.386 136.613C476.842 133.813 476.198 133.327 476.161 133.303C476.103 133.271 476.039 133.25 475.973 133.242C475.898 133.235 475.823 133.235 475.749 133.242C475.405 133.257 475.065 133.322 474.74 133.437C474.323 133.569 473.917 133.733 473.526 133.929C473.149 134.117 472.718 134.354 472.226 134.651L472.001 134.828L472.038 134.894L471.631 135.113C470.762 135.787 469.997 136.328 469.432 136.765C468.815 137.238 468.175 137.68 467.513 138.089C465.542 139.782 463.73 141.652 462.102 143.676L460.134 142.152C462.661 138.991 465.619 136.2 468.922 133.862C469.614 133.358 470.282 132.908 470.902 132.532C471.619 131.967 472.372 131.354 473.131 130.71C473.514 130.394 473.89 130.072 474.267 129.744C474.643 129.416 475.026 129.07 475.396 128.736C476.004 128.183 476.574 127.631 477.109 127.09C477.51 126.689 477.88 126.288 478.22 125.906C478.606 125.471 478.968 125.017 479.307 124.545C479.447 124.351 479.575 124.163 479.684 123.975C480.209 123.115 480.564 122.162 480.729 121.169C480.837 120.736 480.857 120.286 480.787 119.846C480.717 119.405 480.559 118.983 480.322 118.606C480.217 118.489 480.086 118.4 479.939 118.345C479.486 118.192 478.995 118.192 478.542 118.345C478.246 118.419 477.956 118.514 477.674 118.63L477.34 118.776L476.732 119.031L476.125 119.274L475.791 119.413C475.329 119.626 474.837 119.869 474.309 120.142C473.933 120.343 473.538 120.555 473.137 120.786C472.736 121.017 472.366 121.229 471.965 121.466C468.369 123.634 464.221 126.72 461.598 129.762L459.709 128.135C462.636 124.746 467.471 121.15 471.631 118.764C472.032 118.539 472.42 118.32 472.809 118.114L473.331 117.834C473.524 117.648 473.738 117.485 473.969 117.349L474.127 117.245C474.734 116.869 475.269 116.523 475.742 116.195C476.216 115.867 476.562 115.618 476.896 115.363C477.358 114.998 477.734 114.682 478.032 114.397C479.411 113.073 479.186 112.532 479.137 112.447C478.99 112.137 478.78 111.861 478.521 111.637C478.262 111.412 477.959 111.243 477.631 111.142C477.217 111.046 476.789 111.028 476.368 111.087C475.957 111.141 475.55 111.228 475.153 111.348C474.533 111.535 473.924 111.76 473.331 112.022C472.955 112.18 472.566 112.356 472.117 112.557L471.965 112.63C471.625 112.794 471.279 112.964 470.932 113.146C464.671 116.377 457.018 122.013 456.964 122.049C446.25 130.649 440.493 161.623 441.537 169.421C442.145 169.421 442.959 169.5 443.864 169.603C450.623 170.381 463.778 173.369 466.335 174.225H466.438C467.047 174.465 467.677 174.646 468.321 174.766C468.6 174.158 468.685 171.905 468.782 169.3C468.88 166.694 469.013 162.984 469.39 158.082C469.554 156.886 470.756 153.546 472.712 148.189ZM482.223 144.302C481.731 138.514 484.154 132.252 486.104 127.218C488.217 121.752 489.377 118.375 487.616 117.664L487.47 117.61L487.342 117.513C486.213 116.687 484.816 117.288 483.14 118.77C483.607 120.634 483.14 123.082 481.858 125.262C481.251 126.225 480.552 127.126 479.769 127.953L482.022 146.252C482.179 145.614 482.247 144.958 482.223 144.302ZM476.69 159.273L475.342 148.341C475.257 148.584 475.165 148.827 475.074 149.07C473.726 152.768 472.038 157.372 471.965 158.325C471.679 161.969 471.528 164.933 471.43 167.302C473.468 164.828 475.223 162.135 476.666 159.273H476.69ZM481.591 229.808C481.069 230.124 476.793 232.45 475.02 232.554C474.813 242.064 474.692 251.672 475.087 252.96L472.718 253.731C472.068 251.715 472.347 238.864 472.815 220.935C472.955 215.536 473.082 210.684 473.113 207.829C473.058 202.29 473.113 194.03 473.113 186.165C473.113 183.736 473.113 181.586 473.113 181.04C472.949 180.578 472.141 179.315 468.169 177.584C467.416 177.256 466.608 176.94 465.74 176.636L465.63 176.594C462.697 175.567 450.666 173.011 444.453 172.148C443.104 172.039 441.841 171.972 440.693 171.96L439.715 172.233L439.63 171.96C437.553 171.996 435.986 172.221 435.148 172.671C434.583 173.241 431.711 178.416 426.536 224.488C423.639 250.348 421.514 275.875 421.502 280.46C421.447 297.502 428.443 308.082 441.726 311.051C450.289 312.965 460.905 311.586 471.898 307.28C474.327 270.591 479.708 239.69 491.563 225.017C488.138 226.412 484.8 228.013 481.567 229.808H481.591Z" fill="#292929"/>
<path d="M446.773 804.917C472.955 803.867 492.323 794.921 501.305 767.324L500.813 768.83C501.846 769.376 503.753 769.795 506.207 770.123C506.103 769.127 505.994 768.089 505.885 767.044C505.514 763.564 505.223 760.661 504.992 758.226L506.207 758.292L507.47 758.359C507.755 761.317 508.077 764.341 508.332 766.783C508.466 768.058 508.593 769.273 508.715 770.427C515.59 771.083 525.222 771.204 532.735 771.302C532.735 767.554 532.771 763.291 532.783 759.726L534.028 759.793L535.243 759.859C535.243 762.252 535.243 764.961 535.243 767.615C535.243 768.884 535.243 770.135 535.243 771.338C538.28 771.381 540.855 771.429 542.464 771.526C540.26 777.836 541.602 785.932 541.857 793.068C536.391 797.799 529.534 800.46 521.572 803.551C517.989 804.942 514.284 806.381 510.336 808.13L509.638 808.434C502.071 811.726 494.339 815.722 494.382 820.319C494.382 820.616 494.417 820.912 494.485 821.2C472.882 821.237 435.92 819.439 431.243 817.356C431.274 817.331 433.266 805.458 446.773 804.917Z" fill="#292929"/>
<path d="M597.312 784.789C597.348 788.361 597.379 792.077 597.597 795.454C598.423 808.311 598.964 817.002 598.909 820.088C595.787 819.82 592.653 819.712 589.52 819.766C587.795 819.766 586.307 819.766 585.536 819.705C583.829 819.614 582.772 818.169 581.467 816.134C580.386 814.452 579.262 812.721 577.276 812.83C575.29 812.939 573.45 815.023 570.765 820.446C568.221 821.242 555.054 822.377 536.184 822.997C514.32 823.713 502.331 823.191 500.424 822.389C499.644 822.104 498.916 821.694 498.268 821.175C498.125 821.071 498.004 820.939 497.913 820.788C497.821 820.637 497.76 820.469 497.734 820.294C497.734 819.383 499.003 816.699 510.992 811.482L511.714 811.166C513.354 810.437 514.958 809.769 516.537 809.125L517.144 808.876C519.069 808.099 520.952 807.364 522.804 806.647C529.965 803.866 536.463 801.345 541.941 797.301C548.209 792.673 553.147 786.047 556.232 774.744C559.067 775.288 561.941 775.601 564.826 775.679L566.04 775.734L567.292 775.777C574.027 775.995 582.475 775.898 591.087 775.74H592.338H592.502H593.589L596.996 775.679C597.245 777.914 597.276 781.273 597.312 784.789Z" fill="#292929"/>
<path d="M593.067 141.952C593.225 141.904 593.389 141.877 593.553 141.873C593.986 141.881 594.4 142.056 594.706 142.362C595.013 142.667 595.19 143.08 595.199 143.513C595.198 143.949 595.024 144.367 594.715 144.675C594.407 144.983 593.989 145.157 593.553 145.159H593.438C593.024 145.128 592.636 144.944 592.351 144.641C592.067 144.339 591.906 143.94 591.901 143.525C591.903 143.173 592.016 142.83 592.226 142.547C592.436 142.264 592.731 142.056 593.067 141.952Z" fill="#292929"/>
<path d="M491.096 91.1363C489.174 92.2137 487.358 93.4704 485.672 94.8897L483.99 93.0677C485.794 91.5394 487.741 90.187 489.802 89.0289C492.573 87.4672 495.161 85.6035 497.521 83.4718C497.564 83.4293 504.251 78.3034 504.858 78.0908L505.344 79.5059L505.866 80.3562C505.386 80.6538 499.726 84.8565 499.234 85.2816C496.744 87.5256 494.015 89.489 491.096 91.1363Z" fill="#292929"/>
<path d="M492.851 102.336L491.745 100.107C494.175 98.892 498.469 98.0721 502.629 97.2644C505.309 96.8158 507.959 96.2074 510.567 95.4424L511.375 97.7806C508.657 98.5896 505.893 99.2305 503.097 99.6998C499.106 100.483 494.976 101.285 492.851 102.336Z" fill="#292929"/>
<path d="M509.438 109.423V111.913C507.569 111.859 505.706 111.676 503.862 111.366C502.001 111.05 500.12 110.865 498.232 110.813V108.323C500.24 108.373 502.241 108.566 504.221 108.9C505.945 109.195 507.689 109.369 509.438 109.423Z" fill="#292929"/>
<path d="M239.137 584.12C240.085 586.234 238.621 589.927 236.708 591.961C234.279 593.832 232.056 594.494 230.258 593.886C228.612 593.334 227.325 591.688 226.717 589.38C225.879 586.185 225.794 584.127 226.45 583.258C227.106 582.39 229.238 582.292 231.868 582.25C232.609 582.25 233.392 582.25 234.212 582.195C236.86 582.092 238.518 582.742 239.137 584.12Z" fill="#292929"/>
</svg>
